<svg xmlns="http://www.w3.org/2000/svg" viewBox="0 0 36 36" width="256" height="256"><path fill="#ffd93b" d="M23.7 2.4v.1L25 6.4l9 26.7c.2.6-.3 1.1-.9.9L6.4 25l-3.8-1.3h-.1c.3-1.7.7-3.4 1.3-5l15-15c1.5-.6 3.2-1 4.9-1.3z" class="colorFFD93B svgShape"></path><path fill="#7fb239" d="M26.7 16.4c.8.9.8 2.2-.1 3.1-.2.2-.5.4-.8.5-.1.3-.3.6-.5.8-.9.9-2.2.9-3.1.1l.1.1a2.234 2.234 0 0 0 3.7-.8c.3-.1.6-.3.8-.5.9-.9.9-2.3-.1-3.3.1 0 .1 0 0 0z" class="color7FB239 svgShape"></path><path fill="#8cc63e" d="M26.7 19.5c-.2.2-.5.4-.8.5a2.234 2.234 0 0 1-3.7.8 2.234 2.234 0 0 1 .8-3.7 2.234 2.234 0 0 1 3.7-.8c.8.9.8 2.3 0 3.2zm-1.3.1c.1 0 .1 0 0 0 .3-.1.6-.3.8-.5.7-.7.7-1.8 0-2.5s-1.8-.7-2.5 0c-.2.2-.4.5-.4.7 0 .1-.1.1-.1.1-.3.1-.5.2-.7.4-.7.7-.7 1.8 0 2.5s1.8.7 2.5 0c.2-.1.3-.3.4-.7 0 .1 0 .1 0 0z" class="color8CC63E svgShape"></path><path fill="#8cc63e" d="M26.5 16.6c.6.7.6 1.9-.1 2.6-.2.2-.5.4-.8.5h-.1v.1c-.1.3-.2.6-.5.8-.7.7-1.8.7-2.6.1l.1.1c.7.7 1.9.7 2.7 0 .2-.2.4-.5.5-.8 0 0 0-.1.1-.1h.1c.3-.1.6-.2.8-.5.6-.7.6-1.9-.2-2.8.1.1 0 .1 0 0z" class="color8CC63E svgShape"></path><path fill="#7fb239" d="M25.4 23c.7 1 .7 2.5-.2 3.4-.3.3-.6.5-1 .6-.1.4-.3.7-.6 1-.9.9-2.4 1-3.4.2 1 1 2.6.9 3.6-.1.3-.3.5-.6.6-1 .4-.1.7-.3 1-.6 1-.9 1-2.5 0-3.5z" class="color7FB239 svgShape"></path><path fill="#8cc63e" d="M24.9 23.4c.5.8.4 1.9-.2 2.6-.2.2-.5.4-.8.5h-.1v.1c-.1.3-.3.6-.5.8-.7.7-1.8.8-2.6.2l-.5.5c1 .7 2.5.7 3.4-.2.3-.3.5-.6.6-1 .4-.1.7-.3 1-.6.9-.9 1-2.4.2-3.4l-.5.5z" class="color8CC63E svgShape"></path><path fill="#8cc63e" d="M25.1 23.3c.6.9.5 2-.2 2.8-.3.3-.6.4-.9.5 0 0-.1 0-.1.1 0 0 0 .1-.1.1-.1.3-.3.6-.5.9-.8.8-1.9.8-2.8.2.9.8 2.2.8 3-.1.3-.3.4-.6.5-.9 0 0 0-.1.1-.1 0 0 .1 0 .1-.1.3-.1.6-.3.9-.5.8-.8.8-2.1 0-2.9z" class="color8CC63E svgShape"></path><circle cx="12.8" cy="20.8" r="3.1" fill="#d03f3f" class="colorD03F3F svgShape"></circle><circle cx="12.8" cy="20.8" r="2.8" fill="#e24b4b" class="colorE24B4B svgShape"></circle><path fill="#d03f3f" d="m12.4 18.5.4 2.1v.2s-.1.1-.2 0l-2.1-.4c-.1 0-.2-.1-.1-.2.1-.4.3-.8.6-1.1.3-.3.7-.5 1.1-.6.2-.1.3-.1.3 0z" class="colorD03F3F svgShape"></path><path fill="#bf3333" d="m10.9 20 .4.4s-.4 0-.5-.1c-.1-.1-.2-.2-.1-.2 0-.2.1-.2.2-.1zM12 18.9l.4.4s0-.4-.1-.5c-.1-.1-.2-.2-.2-.1-.1-.1-.1.1-.1.2zM11.7 19.2c0 .1.3.3.3.3s-.1-.3-.1-.4c0-.1-.1-.1-.2-.1-.1.1-.1.2 0 .2zM11.2 19.6l.3.3-.4-.1c-.1-.1-.1-.2-.1-.2h.2zM11.4 19.1c.1.1.3.5.3.5s-.5-.2-.5-.3c-.1-.1 0-.2 0-.2h.2z" class="colorBF3333 svgShape"></path><g fill="#bf3333" class="colorBF3333 svgShape"><path d="M12.3 19.9c0 .1.3.2.3.2s0-.3-.1-.3c0-.1-.1-.1-.2-.1-.1.1-.1.1 0 .2zM11.9 20.2c.1 0 .3.3.3.3s-.3-.1-.4-.1c-.1 0-.1-.1-.1-.2s.1 0 .2 0z" fill="#000000" class="color000 svgShape"></path><path d="M12 19.8c.1.1.2.5.2.5s-.4-.2-.5-.2c-.1-.1 0-.1 0-.2.2-.1.3-.2.3-.1z" fill="#000000" class="color000 svgShape"></path></g><path fill="#d03f3f" d="m13.2 23-.4-2.1v-.2s.1-.1.2 0l2.1.4c.1 0 .2.1.1.2-.1.4-.3.8-.6 1.1-.3.3-.7.5-1.1.6-.2.2-.3.1-.3 0z" class="colorD03F3F svgShape"></path><path fill="#bf3333" d="M14.7 21.5l-.4-.4s.4 0 .5.1c.1.1.2.2.1.2s-.1.2-.2.1zM13.6 22.6l-.4-.4s0 .4.1.5c.1.1.2.2.2.1.1.1.2 0 .1-.2zM14 22.3c0-.1-.3-.3-.3-.3s.1.3.1.4c0 .1.1.1.2.1v-.2zM14.4 21.9l-.3-.3.4.1c.1.1.1.2.1.2 0 .1-.1.1-.2 0zM14.3 22.4c-.1-.1-.3-.5-.3-.5s.5.2.5.3v.2c-.1.1-.2.1-.2 0zM13.3 21.6c0-.1-.3-.2-.3-.2s0 .3.1.3c0 .1.1.1.2.1s.1-.1 0-.2zM13.8 21.3c-.1 0-.3-.3-.3-.3s.3.1.4.1c.1 0 .1.1.1.2h-.2zM13.6 21.7c-.1-.1-.2-.5-.2-.5s.4.2.5.2c.1.1 0 .1 0 .2-.2.2-.2.2-.3.1z" class="colorBF3333 svgShape"></path><path fill="#d03f3f" d="m15.1 20.4-2.1.4h-.2s-.1-.1 0-.2l.4-2.1c0-.1.1-.2.2-.1.4.1.8.3 1.1.6.3.3.5.7.6 1.1.1.1.1.2 0 .3z" class="colorD03F3F svgShape"></path><path fill="#bf3333" d="M13.6 18.9l-.4.4s0-.4.1-.5c.1-.1.2-.2.2-.1.1-.1.2.1.1.2zM14.7 20l-.4.4s.4 0 .5-.1c.1-.1.2-.2.1-.2 0-.2-.1-.2-.2-.1zM14.3 19.6c-.1 0-.3.3-.3.3s.3-.1.4-.1c.1 0 .1-.1.1-.2s-.1 0-.2 0zM14 19.1l-.3.3.1-.4.2-.1v.2zM14.5 19.3c-.1.1-.5.3-.5.3s.2-.5.3-.5c.1-.1.2 0 .2 0v.2zM13.7 20.2c-.1 0-.2.3-.2.3s.3 0 .3-.1c.1 0 .1-.1.1-.2h-.2zM13.3 19.8c0 .1-.3.3-.3.3s.1-.3.1-.4c0-.1.1-.1.2-.1s.1.1 0 .2zM13.8 20c-.1.1-.5.2-.5.2s.2-.4.2-.5c.1-.1.1 0 .2 0 .1.1.1.2.1.3z" class="colorBF3333 svgShape"></path><path fill="#d03f3f" d="m10.6 21.2 2.1-.4h.2s.1.1 0 .2l-.5 2c0 .1-.1.2-.2.1-.4-.1-.8-.3-1.1-.6-.3-.3-.5-.7-.6-1.1-.1-.1 0-.2.1-.2z" class="colorD03F3F svgShape"></path><path fill="#bf3333" d="M12 22.6l.4-.4s0 .4-.1.5c-.1.1-.2.2-.2.1-.1.1-.1 0-.1-.2zM10.9 21.5l.4-.4s-.4 0-.5.1c-.1.1-.2.2-.1.2s.1.2.2.1zM11.3 21.9c.1 0 .3-.3.3-.3s-.3.1-.4.1c-.1 0-.1.1-.1.2s.1 0 .2 0zM11.7 22.4l.3-.3-.1.4-.2.1c-.1 0-.1-.1 0-.2zM11.2 22.2c.1-.1.5-.3.5-.3s-.2.5-.3.5c-.1.1-.2 0-.2 0s-.1-.1 0-.2zM12 21.3c.1 0 .2-.3.2-.3s-.3 0-.3.1c-.1 0-.1.1-.1.2h.2zM12.3 21.7c0-.1.3-.3.3-.3s-.1.3-.1.4c0 .1-.1.1-.2.1s-.1-.1 0-.2zM11.8 21.5c.1-.1.5-.2.5-.2s-.2.4-.2.5c-.1.1-.1 0-.2 0-.1-.1-.1-.2-.1-.3z" class="colorBF3333 svgShape"></path><circle cx="12.8" cy="20.8" r=".5" fill="#bf3333" class="colorBF3333 svgShape"></circle><path fill="#e84d88" d="M23.3 10.6c.1 0 .1 0 0 0 .1.2.2.3.3.4.1.1.1.2.1.3.1.1.1.1.1.2v.7c0 .1-.1.3-.1.4-.1.3-.3.6-.5.9-.1.2-.2.3-.4.4-.1.2-.3.3-.5.5l-.5.5-.4.4c-.4.3-.7.5-1.1.6-.1 0-.2.1-.3.1-.2 0-.3 0-.5-.1-.2 0-.3-.1-.5-.2-.1-.1-.2-.1-.3-.2l-.1-.1s0 .1.1.1c1.4 1.4 2.7.4 3.9-.8 1.3-1.4 2.2-2.7.7-4.1.1 0 .1 0 0 0z" class="colorE84D88 svgShape"></path><path fill="#f2f7f9" d="M18.5 10.4a3.32 3.32 0 0 0 0 4.7c.1.1.2.2.3.2.1.1.2.1.3.2.2.1.3.2.5.2s.3.1.5.1c.1 0 .2 0 .3-.1.4-.1.8-.3 1.1-.6.2-.1.3-.2.4-.4.2-.1.3-.3.5-.5l.5-.5.4-.4c.2-.3.4-.6.5-.9.1-.1.1-.3.1-.4v-.7c0-.1 0-.2-.1-.2 0-.1 0-.2-.1-.3-.1-.1-.2-.2-.3-.4v-.1c0-.1-.1-.1-.1-.2-1.4-1-3.5-1-4.8.3zm.6.5c1-1 2.5-1 3.5 0 .9.9.4 1.7-.7 2.8-1.1 1.1-1.9 1.5-2.8.7-1-1-1-2.5 0-3.5z" class="colorF2F7F9 svgShape"></path><path fill="#f2f7f9" d="M23 10.8c.9 1 .3 1.9-.9 3.1s-2.2 1.8-3.1.9v.2c1 1 2 .4 3.3-.8 1.3-1.3 1.8-2.2.8-3.3l-.1-.1z" class="colorF2F7F9 svgShape"></path><path fill="#d03f3f" d="m25.7 23 5.3 5.3c-1.5 1.4-3.8 1.4-5.3 0-1.5-1.5-1.5-3.8 0-5.3z" class="colorD03F3F svgShape"></path><path fill="#e24b4b" d="m26 23.3 4.7 4.7c-1.3 1.3-3.4 1.2-4.7 0a3.32 3.32 0 0 1 0-4.7z" class="colorE24B4B svgShape"></path><path fill="#d03f3f" d="m25.7 26.1 2.1-.4h.1l.3-.1.2.2-.1.2v.1l-.4 2.1c0 .1-.1.2-.3.2-.5-.1-1-.4-1.3-.8-.4-.4-.6-.9-.8-1.4 0 0 .1-.1.2-.1z" class="colorD03F3F svgShape"></path><path fill="#bf3333" d="M27.4 27.9c.1-.1.4-.5.4-.5s0 .5-.1.7-.2.2-.3.2c0-.1-.1-.3 0-.4zM26.1 26.6c.1-.1.5-.4.5-.4s-.5 0-.7.1c-.1.1-.2.2-.2.3h.4zM26.5 27c.1-.1.3-.4.3-.4s-.4.1-.5.1c-.1.1-.1.2-.1.2.1.2.3.2.3.1zM27 27.6l.4-.4s-.1.4-.1.5c-.1.1-.2.2-.3.1-.1 0-.1-.1 0-.2zM26.4 27.4c.1-.1.6-.4.6-.4s-.3.6-.3.7c-.1.1-.2.1-.3 0-.1-.1-.1-.3 0-.3zM27.3 26.3l.3-.3s-.3.1-.4.1c-.1.1-.1.1-.1.2h.2zM27.7 26.8c.1-.1.4-.3.4-.3s-.1.4-.1.5-.2.1-.2.1-.1-.2-.1-.3zM27.2 26.6c.1-.1.6-.3.6-.3s-.2.5-.3.6c-.1.1-.2.1-.3 0s-.1-.3 0-.3z" class="colorBF3333 svgShape"></path><path fill="#d03f3f" d="m26.2 23.6 2.1 2.1h-.1l-.3-.1h-.1l-2.1-.4c-.1 0-.2-.1-.1-.2 0-.6.3-1 .6-1.4z" class="colorD03F3F svgShape"></path><path fill="#bf3333" d="M26.1 24.7c.1.1.5.4.5.4s-.5 0-.7-.1-.2-.2-.2-.3.3-.1.4 0zM26.4 24.3l.4.4s-.4-.1-.5-.1c-.1-.1-.2-.2-.1-.3s.1-.1.2 0zM26.3 23.7l.6.6s-.6-.3-.7-.3.1-.2.1-.3zM27.2 25c.1.1.3.4.3.4s-.4-.1-.5-.1c0-.1-.1-.2 0-.3s.1-.1.2 0zM27.2 24.5l.5.5c-.1 0-.5-.2-.5-.3-.1 0-.1-.1 0-.2z" class="colorBF3333 svgShape"></path><path fill="#d03f3f" d="m28.3 25.7 2.1 2.1c-.4.4-.8.6-1.3.7-.1 0-.2 0-.3-.2l-.4-2.1v-.3c-.1-.1-.1-.2-.1-.2z" class="colorD03F3F svgShape"></path><path fill="#bf3333" d="M29.3 27.9c-.1-.1-.4-.5-.4-.5s0 .5.1.7.2.2.3.2c0-.1.1-.3 0-.4zM29.7 27.4c-.1-.1-.4-.3-.4-.3s.1.4.1.5c.1.1.2.1.2.1.2-.1.2-.2.1-.3zM29.9 27.2l.4.4h-.2c-.1 0-.1-.2-.2-.4zM29 26.7l-.3-.3s.1.3.1.4c.1.1.1.1.2.1v-.2zM29.1 26.5l.3.3h-.2c.1 0 0-.2-.1-.3zM27.9 25.3l.8.8c-.1.1-.2.1-.3.1h-.1c-.1 0-.3-.1-.4-.2-.1-.1-.2-.2-.2-.4v-.1c.1 0 .1-.1.2-.2z" class="colorBF3333 svgShape"></path><path fill="#e84d88" d="M16.2 27.3c.1-.8.4-1.7 1-2.4 1.3-1.6 3.5-2 4.9-1l-.1-.1c-1.4-1.2-3.8-1-5.2.6-.7.8-1 1.9-.9 2.9h.3z" class="colorE84D88 svgShape"></path><path fill="#f2f7f9" d="M16.9 27.2c.1-.6.3-1.3.8-1.9 1.1-1.3 2.9-1.7 4-.7.6.5.9 1.3.8 2.1l.7-.1c0-1-.3-2-1.1-2.6-1.4-1.2-3.7-.8-5 .9-.6.7-.9 1.6-1 2.4l.8-.1z" class="colorF2F7F9 svgShape"></path><path fill="#9a795f" d="M25.1 3.5c.4 1.2-.4 2.6-1.6 2.9-8.4 2.1-15 8.7-17.1 17.1-.3 1.3-1.6 2-2.9 1.6-1.1-.4-1.7-1.5-1.5-2.6.3-1.1.6-2.2 1-3.3 2.8-7.4 8.7-13.3 16.1-16.1 1.1-.4 2.2-.8 3.3-1 1.2-.3 2.4.3 2.7 1.4z" class="color9A795F svgShape"></path><path fill="#7a5b44" d="M23.7 2.5 25 6.4c-.3.3-.6.4-1 .5C15.6 9 9 15.6 6.9 24c-.1.4-.3.7-.5 1l-3.8-1.3V23c.3-1.1.6-2.2 1-3.3.2-.5.4-.9.6-1.4C7 12 12 7 18.3 4.2c.5-.2.9-.4 1.4-.6 1.1-.4 2.2-.7 3.3-1 .3-.1.5-.1.7-.1z" class="color7A5B44 svgShape"></path><path fill="#f4c534" d="M19.8 21.9c-.2.2-.6.2-.8 0-1-1-1-2.6 0-3.6.2-.2.6-.2.8 0 .2.2.2.6 0 .8-.5.5-.5 1.4 0 2 .2.2.2.6 0 .8zM27.9 21.6c.2-.3.6-.3.8-.1 1.1.8 1.4 2.4.5 3.6-.2.3-.6.3-.8.1-.3-.2-.3-.6-.1-.8.5-.6.3-1.5-.3-2-.2-.2-.3-.6-.1-.8z" class="colorF4C534 svgShape"></path><path fill="#89664c" d="M25.1 3.5c.4 1.2-.4 2.6-1.6 2.9-8.4 2.1-15 8.7-17.1 17.1-.3 1.3-1.6 2-2.9 1.6-1.1-.4-1.7-1.5-1.5-2.6.3-1.1.6-2.2 1-3.3 2.8-7.4 8.7-13.3 16.1-16.1 1.1-.4 2.2-.8 3.3-1 1.2-.3 2.4.3 2.7 1.4z" class="color89664C svgShape"></path></svg>